<?xml version="1.0" encoding="utf-8"?>
<!-- Generator: Adobe Illustrator 19.1.0, SVG Export Plug-In . SVG Version: 6.00 Build 0)  -->
<!DOCTYPE svg PUBLIC "-//W3C//DTD SVG 1.1//EN" "http://www.w3.org/Graphics/SVG/1.1/DTD/svg11.dtd">
<svg version="1.1" id="Layer_1" xmlns="http://www.w3.org/2000/svg" xmlns:xlink="http://www.w3.org/1999/xlink" x="0px" y="0px"
	 viewBox="0 0 332 253.3" style="enable-background:new 0 0 332 253.3;" xml:space="preserve">
<style type="text/css">
	.st0{fill:#FFFFFF;}
</style>
<path class="st0" d="M63.9,35.8l-0.1,0.5l-3.5,1.5l-1.5,12.8c-0.2,1.5-0.1,2.7,0.2,3.4c0.4,0.8,0.9,1,1.8,0.7
	c1.6-0.7,3.1-4.7,4.5-12.1c0-0.2,0.1-0.4,0.2-0.4c0.1,0,0.2,0,0.2,0.1c0,0.1,0,0.2-0.1,0.5l-0.5,2.1c-1.3,6.1-2.8,9.5-4.5,10.3
	c-0.8,0.4-1.7,0.4-2.5,0c-0.8-0.4-1.4-1-1.8-1.9c-0.5-1.1-0.6-2.6-0.3-4.6l1.2-9.5l-2.7,1.2l0.1-0.5l2.7-1.2l0.8-6.5
	c0.6-0.1,1.1-0.2,1.6-0.4c0.5-0.2,1-0.5,1.5-0.9l-0.8,6.5L63.9,35.8z"/>
<path class="st0" d="M82.8,34.8c0.1,0.1,0,0.3-0.1,0.6l-0.5,2.1c-1.3,6.1-2.8,9.5-4.4,10.2c-0.9,0.4-1.7,0.4-2.5,0
	c-0.8-0.4-1.4-1-1.8-2C73,44.5,73,42.6,73.4,40c0.7-4,1-6.3,0.7-6.9c-0.3-0.7-0.8-0.9-1.5-0.6c-1.1,0.5-2.1,2.2-3,5.1
	c-0.9,2.8-1.7,7.7-2.3,14.6c-0.6,0.1-1.1,0.3-1.4,0.4c-0.4,0.2-0.9,0.5-1.5,0.9l0.8-8.8c0.1-1.2,0.3-3.1,0.5-5.6
	c0.2-1.2,0.6-5.1,1.4-11.5l1-8.6c0.6-0.1,1.1-0.3,1.4-0.4c0.7-0.3,1.3-0.7,1.9-1.2c-0.5,3.8-1.4,9.4-2.4,17c0,0.2-0.4,3.1-1.1,8.7
	c1.2-6.4,2.7-10.1,4.7-10.9c0.8-0.3,1.6-0.3,2.4,0.1c0.8,0.4,1.5,1.1,1.9,2c0.6,1.2,0.5,3.3,0,6.3c-0.6,3.3-0.8,5.3-0.5,6
	c0.3,0.8,0.9,1,1.7,0.6c1.4-0.6,2.7-3.9,3.9-9.8l0.3-1.5l0.2-0.8c0-0.2,0.1-0.4,0.2-0.4C82.7,34.7,82.8,34.7,82.8,34.8z"/>
<path class="st0" d="M96.3,29c0,0.1,0,0.4-0.2,0.9l-0.5,1.9c-1.7,6.2-3.9,9.8-6.5,11c-1.2,0.5-2.5,0.6-3.7,0
	c-1.2-0.5-2.2-1.5-2.8-2.8c-1.4-3.2-0.4-7,3-11.4c1.8-2.3,3.4-3.8,4.9-4.4c0.6-0.3,1.3-0.3,1.9-0.1c0.6,0.2,1.1,0.5,1.3,1.1
	c0.6,1.3,0.2,2.7-1.1,4.4c-1.3,1.6-3.7,3.7-7.3,6.2C85,38,85,39.8,85.6,41.1c0.7,1.5,1.8,1.9,3.5,1.2c2.8-1.2,5.1-5.5,6.7-12.8
	c0.1-0.4,0.2-0.6,0.3-0.6C96.2,28.8,96.3,28.9,96.3,29z M91.9,25c-0.3-0.6-0.7-0.7-1.3-0.5c-0.9,0.4-1.9,1.6-2.8,3.6
	c-1,2-1.7,4.3-2.3,7.1c2.3-1.8,4-3.7,5.3-5.6C92,27.6,92.3,26.1,91.9,25z"/>
<path class="st0" d="M137.2,54.2c0.7,2,1.2,4.2,1.6,6.8c0.3,2.5,0.2,3.9-0.2,4.1c-0.4,0.1-0.6,0-0.8-0.4c0-0.1-0.1-0.3-0.1-0.6
	c0.1-3-0.5-6.1-1.6-9.2c-1.7-4.8-4.6-8.1-8.5-10c-3.9-1.9-8.2-2-12.9-0.3c-6.3,2.3-12,6.7-17.1,13.2c6.8,2,11.1,5.7,13,11
	c3.1,8.5-0.9,15.6-11.8,21.4c10.7-0.1,17.6,4.2,20.8,13.1c2.4,6.5,1.6,13.3-2.2,20.2c-3.8,6.9-9.4,11.7-16.9,14.4
	c-3.6,1.3-6.8,1.4-9.5,0.3c-2.8-1.1-4.7-3.2-5.9-6.4c-1.8-4.9-1.3-10.5,1.5-16.9c2.7-6.4,6.4-10.4,10.9-12c2.5-0.9,4.8-0.9,7,0.1
	c2.2,1,3.7,2.7,4.6,5.2c0.5,1.5,0.7,3.5,0.6,6c-0.1,2.5-0.5,3.9-1,4.1c-0.4,0.1-0.7,0.1-0.8-0.2c-0.1-0.1-0.1-0.4,0-0.8
	c0.9-3.6,1-6.6,0.1-8.9c-0.8-2.2-2.1-3.7-4-4.5c-1.9-0.8-4-0.8-6.2,0c-4.3,1.6-7.7,5.3-10.1,11.3c-2.5,6-2.8,11.4-1.1,16.1
	c0.9,2.5,2.5,4.3,4.8,5.4c2.3,1,4.7,1.1,7.3,0.2c5.8-2.1,10.1-6.8,12.9-14.2c2.8-7.4,3-14.5,0.5-21.2c-2.3-6.3-7-9.8-14.2-10.6
	l-3.2,1.6c-0.9,0.4-1.8,0.8-2.7,1.2c-2.9,1-4.5,1.1-4.8,0.1c-0.3-0.7,0.8-1.5,3.2-2.3c1.7-0.6,4.1-1.1,7.2-1.4
	c3.5-2.6,5.9-5.9,7.1-9.8c1.2-3.9,1.1-7.8-0.3-11.7c-1.4-3.8-4.1-6.7-8.1-8.7c-6,9.4-9.9,23.1-11.7,41c-1.1,11-2.8,19.3-5,24.9
	c-2.2,5.4-6,11-11.5,16.8c-6.5,6.7-12.9,11.3-19.2,13.5c-5.1,1.8-9.8,2.2-14,1.1c-4.2-1.1-7-3.4-8.2-6.9c-0.7-1.9-0.7-3.8-0.1-5.6
	c0.6-1.8,1.8-3,3.4-3.6c2.3-0.8,3.9,0,4.9,2.6c0.5,1.3,0.5,2.5,0,3.7c-0.4,1.2-1.2,2-2.4,2.4c-2,0.7-3.3,0-4-2.1
	c-0.3-0.9-0.5-1.2-0.7-1.2c-0.6,0.2-0.5,1.3,0.2,3.4c1.1,3.1,3.6,5.2,7.5,6.2c3.9,1,8.1,0.6,12.9-1.1c8.3-3,14.8-8.8,19.3-17.4
	c2-3.7,3.5-7.4,4.6-11.1c1.1-3.7,3.4-12.9,6.9-27.5c1.7-7,4.2-14.4,7.3-22.2c3.2-7.8,6.1-13.5,8.8-17.3c-7.8-2.9-17.4-2.3-28.9,1.9
	c-16,5.8-27.9,16.6-35.6,32.5c-6.3,13-7.9,23.7-4.9,32.1c1.5,4.2,4.1,7.1,7.8,8.7c3.6,1.5,7.8,1.4,12.5-0.3
	c7.6-2.8,14.2-9.3,19.7-19.6c5.5-10.3,7-18.9,4.5-25.8c-2-5.5-5.8-7.3-11.5-5.2c-5.7,2-10.6,7.4-14.8,16c-4.2,8.6-5.3,15.7-3.3,21.3
	c0.5,1.4,1.4,2.4,2.6,3c1.3,0.7,2.5,0.8,3.7,0.3c0.7-0.1,1.1-0.1,1.1,0.1c0.1,0.3-0.2,0.6-0.9,0.9c-1.8,0.7-3.7,0.4-5.5-0.8
	c-1.9-1.2-3.2-3-4.1-5.4c-2.1-5.9-0.9-12.8,3.5-20.8c4.5-8,10.1-13.2,17-15.6c6.5-2.4,10.9-0.5,13.1,5.5c2.7,7.4,1.2,16.3-4.4,26.9
	c-5.6,10.5-12.5,17.3-20.6,20.2c-5.3,1.9-10.1,1.9-14.4-0.2c-4.3-2-7.4-5.7-9.4-11c-3.9-10.8-1.4-22.8,7.6-36
	C39,74.9,50.8,65.6,65.5,60.3c11.1-4,21.3-4.9,30.9-2.7c5.4-6.8,11.3-11.5,17.8-13.8c5.1-1.8,9.7-1.8,13.9,0.1
	C132.4,45.8,135.4,49.3,137.2,54.2z"/>
<path class="st0" d="M158.2,93.5c0,0.1-0.1,0.7-0.5,1.9l-1.3,4c-4.4,12.6-9.4,19.9-15,21.9c-2.6,1-5.2,0.8-7.8-0.5
	c-2.5-1.3-4.3-3.3-5.3-6.2c-2.5-6.8,0.1-14.6,7.8-23.3c4-4.6,7.6-7.4,10.8-8.5c1.4-0.5,2.7-0.5,3.9,0c1.3,0.5,2.1,1.3,2.5,2.5
	c1,2.7,0,5.7-2.8,8.9c-2.9,3.2-8.2,7.2-16,11.9c-1.2,4.9-1.3,8.6-0.3,11.2c1.2,3.3,3.5,4.3,7.1,3c6-2.2,11.2-10.7,15.7-25.6
	c0.2-0.8,0.5-1.2,0.8-1.3C158,93.3,158.2,93.4,158.2,93.5z M149.6,84.7c-0.4-1.2-1.3-1.6-2.7-1.1c-2,0.7-4.2,3.1-6.4,7.1
	c-2.3,4-4.2,8.8-5.7,14.3c5-3.4,8.9-7,11.8-11C149.4,90.1,150.4,87,149.6,84.7z"/>
<path class="st0" d="M198.3,79c0.3,0.8-1.2,5.5-4.3,14.1c-2.5,7-5.1,11-7.7,11.9c-1.7,0.6-3.4,0.5-5-0.4c-1.6-0.9-2.7-2.4-3.4-4.3
	c-0.7-2.1-0.9-4.5-0.6-7.3c-1.9,6.7-3.5,11.4-4.8,13.9c-1.3,2.6-3,4.2-4.8,4.9c-2,0.7-4,0.5-6-0.8c-2-1.2-3.5-3.2-4.4-5.8
	c-2.6-7.3,0.2-15.6,8.5-25c3.6-4.1,6.8-6.7,9.6-7.7c2.4-0.8,4-0.1,4.8,2.2c0.2,0.6,0.4,1.6,0.5,2.7l0.9-6.6c1.2-0.1,2.3-0.4,3.2-0.7
	c1-0.4,2.3-1,3.8-1.8l-4,20.4c-1.4,7.1-1.7,11.6-1.1,13.5c0.6,1.8,1.7,2.4,3.2,1.9c1.5-0.6,3.3-3.2,5.4-7.9c2.1-4.7,4-10.2,5.6-16.6
	c0.1-0.5,0.2-0.7,0.4-0.8C198.1,78.7,198.2,78.8,198.3,79z M179.2,75.2c-0.7-1.9-1.9-2.5-3.6-1.9c-3.5,1.3-6.8,6.3-10.1,15.2
	c-3.2,8.9-4,15.5-2.5,19.7c0.9,2.5,2.4,3.3,4.7,2.5c2.6-0.9,5.6-6.9,8.9-18C179.3,83.8,180.1,77.9,179.2,75.2z"/>
<path class="st0" d="M235,65.7c0.3,0.9-1.1,5.6-4.3,14.1c-2.6,7.1-5.2,11.1-7.9,12c-1.7,0.6-3.3,0.4-5-0.5c-1.6-0.9-2.8-2.3-3.5-4.2
	c-0.5-1.5-0.5-3.8,0-7l-0.6,2c-1.9,5.8-3.4,9.7-4.4,11.8c-1.2,2.4-2.6,3.8-4.2,4.4c-1.7,0.6-3.3,0.5-4.9-0.4
	c-1.6-0.9-2.8-2.3-3.4-4.2c-0.8-2.2-0.9-5-0.2-8.5l4.1-21.2c1.4-0.2,2.4-0.4,3.2-0.7c0.7-0.3,2-0.9,3.7-1.8L202,88.6
	c-0.5,2.8-0.5,5,0.1,6.8c0.6,1.7,1.6,2.3,3.1,1.8c3.8-1.4,7.4-10.8,10.7-28.2l2.2-11.5c1.3-0.2,2.3-0.4,3.1-0.7
	c0.9-0.3,2.3-1,3.9-1.9l-3.7,18.2c-1.8,8.6-2.3,14-1.6,16c0.6,1.6,1.7,2.2,3.2,1.6c3-1.1,6.3-7.7,9.6-19.8l0.9-3.1l0.6-1.6
	c0.1-0.4,0.2-0.7,0.4-0.8C234.7,65.4,234.9,65.5,235,65.7z"/>
<path class="st0" d="M251.2,45l-0.1,1l-7.5,2.7l-4.9,26.3c-0.6,3.2-0.6,5.6-0.1,7.1c0.6,1.7,1.8,2.3,3.6,1.6
	c3.5-1.2,7.1-9.4,11-24.4c0.1-0.5,0.3-0.7,0.5-0.8c0.2-0.1,0.4,0,0.5,0.2c0,0.1-0.1,0.5-0.2,1.1l-1.2,4.3
	c-3.6,12.5-7.2,19.4-10.8,20.7c-1.8,0.7-3.5,0.5-5.2-0.3c-1.7-0.9-2.9-2.3-3.6-4.2c-0.8-2.3-0.9-5.5-0.1-9.6l3.8-19.5l-5.8,2.1
	l0.3-1.1l5.7-2.1l2.7-13.5c1.3-0.1,2.4-0.4,3.4-0.7c1.1-0.4,2.1-0.9,3.1-1.7l-2.6,13.4L251.2,45z"/>
<path class="st0" d="M290.1,45.8c0.2,0.6-1,3.9-3.5,10.1c-2.8,6.8-7.2,13.6-13.2,20.3l-1,6c-2,11.9-5,21.3-9.3,28.3
	c-4.4,7.2-8.9,11.7-13.4,13.3c-1.6,0.6-3,0.5-4.5-0.1c-1.4-0.6-2.4-1.6-2.9-3.1c-2.8-7.6,3.2-18.7,17.8-33.3c1.2-1.2,3-3,5.4-5.4
	l0.7-0.8l3.6-21.5c-2,6.9-3.6,11.5-4.7,13.8c-1.2,2.3-2.7,3.8-4.5,4.5c-1.6,0.6-3.1,0.4-4.8-0.5c-1.6-0.9-2.8-2.3-3.4-4
	c-0.8-2.2-0.7-6,0.4-11.6l3.4-18c0.9-0.2,2-0.5,3.1-0.9c1-0.4,2.3-1,4-1.9l-4.6,22.3c-1.3,6.3-1.7,10.3-1.1,11.9
	c0.6,1.7,1.7,2.3,3.3,1.7c4.1-1.5,7.8-11,11-28.7l2-10.9c0.9-0.2,2-0.5,3.3-0.9c1-0.4,2.2-1,3.7-1.8c-2,9.2-4.4,22.5-7.2,39.9
	c3.8-4.1,6.8-8.1,9-12c2.2-3.9,4.3-9.2,6.5-15.7c0.3-0.9,0.5-1.3,0.6-1.4C289.9,45.5,290,45.6,290.1,45.8z M266.1,82.5
	c-0.5,0.6-2.2,2.4-5.3,5.6c-14.2,14.8-20,25.7-17.6,32.5c1,2.9,3.1,3.7,6.3,2.5c4-1.5,7.3-5.1,9.7-10.9c2.4-5.8,4.6-15.3,6.5-28.3
	L266.1,82.5z"/>
<path class="st0" d="M159,141.6c0.6,1.8,1.1,3.8,1.4,6.1c0.3,2.3,0.2,3.5-0.2,3.7c-0.3,0.1-0.6,0-0.7-0.3c0-0.1,0-0.3-0.1-0.5
	c0-2.7-0.4-5.5-1.4-8.2c-1.6-4.3-4.1-7.3-7.6-9c-3.5-1.7-7.4-1.8-11.6-0.2c-5.7,2-10.9,6-15.5,11.9c6.6,2.2,10.9,6,12.8,11.2
	c1.6,4.4,1.2,8.8-1.1,13.4c-2.3,4.5-5.9,7.6-10.6,9.3c-1.9,0.7-4,1-6.3,1c-2.4,0-3.7-0.3-3.9-1c0-0.2,0.1-0.4,0.3-0.5
	c0.2-0.1,0.5-0.1,0.9,0c2.6,0.4,4.9,0.3,7.1-0.5c3.9-1.4,6.6-4.3,8.2-8.7c1.6-4.4,1.5-8.9-0.2-13.5c-1.4-4-4.2-7.1-8.2-9.2
	c-5.4,8.2-8.9,20.5-10.6,36.9c-1,9.9-2.5,17.3-4.5,22.3c-2,4.9-5.5,10-10.5,15.2c-5.9,6.1-11.6,10.1-17.2,12.2
	c-4.6,1.7-8.8,2-12.6,1c-3.8-1-6.3-3.1-7.4-6.2c-0.6-1.8-0.6-3.4-0.1-5.1c0.6-1.6,1.6-2.7,3-3.2c2.1-0.8,3.5,0,4.4,2.4
	c0.4,1.2,0.4,2.3,0,3.4c-0.4,1.1-1.1,1.8-2.1,2.2c-1.8,0.6-3,0-3.6-1.9c-0.2-0.8-0.4-1.1-0.6-1.1c-0.5,0.2-0.5,1.2,0.2,3
	c1,2.8,3.3,4.7,6.7,5.6c3.5,0.9,7.3,0.5,11.6-1c7.5-2.7,13.3-7.9,17.4-15.7c1.8-3.4,3.2-6.7,4.1-9.9c1.1-3.5,3.1-11.7,6.2-24.8
	c1.6-6.4,3.8-13.1,6.6-20.1c2.8-6.9,5.4-12.1,7.9-15.6c-7-2.6-15.6-2.1-26,1.7c-14.4,5.2-25.1,15-32,29.3
	c-5.7,11.7-7.1,21.4-4.4,28.9c1.4,3.8,3.7,6.4,7,7.8c3.3,1.4,7,1.3,11.2-0.2c6.9-2.5,12.8-8.4,17.7-17.6c5-9.3,6.3-17,4.1-23.2
	c-1.8-5-5.2-6.5-10.3-4.7c-5.1,1.8-9.5,6.7-13.3,14.5c-3.8,7.8-4.8,14.2-2.9,19.2c0.4,1.2,1.2,2.1,2.4,2.7c1.2,0.6,2.3,0.7,3.4,0.3
	c0.6-0.2,1-0.2,1.1,0.1c0.1,0.3-0.2,0.5-0.8,0.8c-1.6,0.6-3.3,0.4-5-0.7c-1.7-1.1-2.9-2.7-3.7-4.8c-1.9-5.3-0.9-11.6,3.1-18.8
	c4-7.2,9.1-11.9,15.3-14.1c5.9-2.1,9.8-0.5,11.8,5c2.4,6.6,1.1,14.7-4,24.2c-5,9.5-11.2,15.5-18.5,18.2c-4.7,1.7-9.1,1.7-13-0.2
	c-3.9-1.8-6.7-5.1-8.4-9.9c-3.5-9.7-1.2-20.5,6.8-32.4c8-11.9,18.7-20.3,31.9-25.1c10.1-3.6,19.3-4.5,27.8-2.4
	c4.9-6.2,10.2-10.3,16.1-12.4c4.6-1.7,8.8-1.6,12.5,0.1C154.6,134,157.4,137.1,159,141.6z"/>
<path class="st0" d="M171.3,179.3c0.3,0.7-1,4.9-3.9,12.7c-2.3,6.3-4.6,9.9-6.9,10.8c-1.6,0.6-3.1,0.4-4.5-0.4
	c-1.4-0.8-2.4-2.1-3.1-3.9c-0.7-1.9-0.9-4-0.5-6.6c-1.7,6-3.1,10.2-4.3,12.5c-1.2,2.3-2.7,3.8-4.4,4.4c-1.8,0.7-3.6,0.4-5.4-0.7
	c-1.8-1.1-3.1-2.9-4-5.2c-2.4-6.6,0.2-14.1,7.6-22.5c3.3-3.7,6.1-6,8.6-6.9c2.1-0.8,3.6-0.1,4.3,1.9c0.2,0.6,0.4,1.4,0.4,2.5
	l0.8-5.9c1.1-0.1,2.1-0.3,2.9-0.6c0.9-0.3,2.1-0.9,3.5-1.7l-3.6,18.3c-1.3,6.4-1.6,10.4-1,12.1c0.6,1.6,1.5,2.2,2.9,1.7
	c1.4-0.5,3-2.8,4.9-7.1c1.9-4.2,3.5-9.2,5-14.9c0.1-0.4,0.2-0.7,0.4-0.7C171.1,179,171.2,179.1,171.3,179.3z M154.1,175.9
	c-0.6-1.7-1.7-2.2-3.2-1.7c-3.2,1.1-6.2,5.7-9.1,13.7c-2.9,8-3.6,13.9-2.3,17.7c0.8,2.2,2.2,3,4.2,2.3c2.4-0.9,5-6.3,8-16.2
	C154.1,183.6,154.9,178.3,154.1,175.9z"/>
<path class="st0" d="M200.7,168.7c0.1,0.3-0.5,1.9-1.7,4.9c-1.6,3.8-3.5,6.2-5.8,7c-2.6,0.9-4.5-0.1-5.5-3.1c-0.3-1-0.6-2.2-0.7-3.9
	c-1.5,2.7-2.6,5.2-3.2,7.5c-0.7,2.3-1.7,6.9-2.9,13.8c-1.9,0.5-2.9,0.8-3.3,1c-0.1,0-1.2,0.5-3.1,1.3l3.5-16.7
	c1.7-8.4,2.3-13.4,1.7-15c-0.4-1-0.9-1.3-1.7-1c-1.9,0.7-4.1,5.6-6.4,14.8c-0.1,0.6-0.3,0.9-0.6,1c-0.1,0-0.3-0.1-0.3-0.2
	c0-0.2,0-0.3,0.1-0.5l0.5-1.6c2.7-8.9,5-13.7,6.9-14.4c2.7-1,4.7,0.3,6,3.8c1,2.6,0.8,6.6-0.4,12c1-2.7,2.1-5,3.3-6.9
	c0.2-3.5,0.9-6.6,2.1-9.4c1.2-2.8,2.6-4.4,4.1-5c1.1-0.4,1.8-0.1,2.1,0.8c0.6,1.6-0.9,4.8-4.6,9.6c-0.6,0.8-1.5,1.9-2.6,3.3
	l-0.4,0.7c0.1,1.7,0.3,3.1,0.7,4.2c1,2.9,2.6,3.9,4.8,3.1c2.7-1,4.8-4.2,6.3-9.8c0.4-1,0.7-1.5,0.9-1.6
	C200.4,168.4,200.6,168.5,200.7,168.7z"/>
<path class="st0" d="M214.4,122.6c-5.7,29.1-9,46.2-9.9,51.3c-0.9,5.1-1,8.3-0.5,9.7c0.5,1.5,1.5,2.1,2.8,1.6c2.9-1,6.2-8.4,9.9-22
	c0-0.4,0.2-0.6,0.4-0.7c0.1,0,0.2,0.1,0.3,0.2c0.1,0.2,0,0.5-0.2,1l-1.1,3.8c-3.2,11.3-6.4,17.5-9.5,18.6c-1.5,0.5-2.9,0.4-4.2-0.4
	c-1.3-0.8-2.3-2-2.9-3.7c-0.7-1.9-0.9-3.9-0.7-5.9c0.2-2.1,1.4-8.2,3.4-18.5c2.5-12.5,4.5-23.4,6-32.4c1.1-0.1,2.1-0.3,2.9-0.6
	C212.3,124,213.4,123.4,214.4,122.6z"/>
<path class="st0" d="M247.8,151.5c0.2,0.5-0.3,2.2-1.6,4.9c-1.9,4.1-4.2,6.6-6.7,7.5c-1.1,0.4-2.1,0.5-3.1,0.4
	c-2.2,8-5.3,12.8-9.3,14.2c-2,0.7-4.1,0.5-6.2-0.6c-2.1-1.2-3.5-2.9-4.4-5.3c-1.9-5.3-0.3-11.6,4.9-19c3.6-5.2,7-8.4,10.1-9.5
	c2.9-1.1,5,0,6.1,3.1c1.4,3.9,1.1,9.4-1.1,16.5c0.8,0.2,1.7,0.1,2.5-0.2c1.6-0.6,3.1-1.9,4.6-4.1c1.5-2.2,2.6-4.5,3.2-7
	c0.2-0.6,0.4-1,0.6-1C247.7,151.4,247.8,151.4,247.8,151.5z M237,147.7c-1-2.8-2.7-3.7-5.3-2.8c-3.1,1.1-5.8,5.5-8.1,13.1
	c-2.3,7.6-2.8,13.4-1.3,17.5c0.9,2.4,2.4,3.1,4.7,2.3c3.7-1.4,6.6-5.8,8.8-13.5c-1.4-0.7-2.3-1.7-2.7-2.8c-0.6-1.7-0.6-3.6,0.1-5.9
	c0.7-2.3,1.7-3.6,2.9-4.1c0.6-0.2,1.1,0,1.5,0.6C237.7,150.6,237.5,149.1,237,147.7z"/>
<path class="st0" d="M280.8,139.7c0.3,0.8-1,5-3.9,12.7c-2.3,6.4-4.7,10-7.1,10.8c-1.5,0.6-3,0.4-4.5-0.4c-1.5-0.8-2.5-2.1-3.1-3.8
	c-0.5-1.3-0.5-3.4,0-6.3l-0.5,1.8c-1.7,5.2-3,8.7-4,10.6c-1.1,2.1-2.3,3.4-3.7,4c-1.5,0.5-3,0.4-4.4-0.4c-1.5-0.8-2.5-2.1-3.1-3.8
	c-0.7-2-0.8-4.5-0.2-7.7l3.7-19.1c1.3-0.2,2.2-0.4,2.9-0.6c0.7-0.2,1.8-0.8,3.4-1.6l-4.9,24.5c-0.5,2.5-0.4,4.5,0.1,6.1
	c0.5,1.5,1.5,2.1,2.8,1.6c3.5-1.3,6.7-9.7,9.6-25.4l2-10.3c1.1-0.1,2.1-0.3,2.8-0.6c0.8-0.3,2-0.9,3.5-1.7l-3.4,16.4
	c-1.6,7.8-2.1,12.6-1.4,14.4c0.5,1.5,1.5,2,2.9,1.4c2.7-1,5.6-6.9,8.7-17.8l0.8-2.8l0.5-1.5c0.1-0.4,0.2-0.6,0.3-0.7
	C280.6,139.4,280.7,139.5,280.8,139.7z"/>
<path class="st0" d="M310.1,129.1c0.1,0.3-0.5,1.9-1.7,4.9c-1.6,3.8-3.5,6.2-5.8,7c-2.6,0.9-4.5-0.1-5.5-3.1c-0.3-1-0.6-2.2-0.7-3.9
	c-1.5,2.7-2.6,5.1-3.2,7.5c-0.7,2.3-1.7,6.9-2.9,13.8c-1.9,0.5-2.9,0.8-3.2,0.9c-0.1,0.1-1.2,0.5-3.1,1.3l3.5-16.7
	c1.7-8.4,2.3-13.4,1.7-15c-0.3-1-0.9-1.3-1.7-1c-1.9,0.7-4.1,5.6-6.4,14.8c-0.1,0.6-0.3,0.9-0.6,1c-0.2,0-0.3-0.1-0.3-0.2
	c0-0.2,0-0.3,0.1-0.5l0.5-1.6c2.7-8.9,5-13.8,6.9-14.4c2.7-1,4.8,0.3,6,3.8c0.9,2.6,0.8,6.6-0.4,12c1-2.7,2.1-5,3.3-6.9
	c0.2-3.5,0.9-6.6,2.1-9.4c1.2-2.7,2.6-4.4,4.1-5c1.1-0.4,1.8-0.1,2.1,0.8c0.6,1.6-0.9,4.8-4.6,9.6c-0.6,0.8-1.5,1.9-2.6,3.3L297,133
	c0.1,1.7,0.3,3.1,0.7,4.2c1.1,2.9,2.6,3.9,4.8,3.1c2.7-1,4.8-4.2,6.3-9.8c0.4-1,0.7-1.5,0.9-1.6C309.9,128.8,310,128.9,310.1,129.1z
	"/>
</svg>
